<svg width="100" height="100" viewBox="0 0 100 100" fill="none" xmlns="http://www.w3.org/2000/svg">
<g clip-path="url(#clip0_804_82)">
<path d="M32.4444 69L32.4444 33.4444C32.4444 32.8922 32.8922 32.4444 33.4444 32.4444L66.3441 32.4445C66.9074 32.4445 67.3595 32.9094 67.3437 33.4724L66.8803 50.0401C66.8652 50.5813 66.4221 51.0121 65.8807 51.0121L51.4575 51.0121C50.5517 51.0121 50.1126 52.12 50.7724 52.7406L83.8627 83.8627M83.8627 83.8627L48.9346 83.8627L16.9542 83.8627C16.402 83.8627 15.9542 83.415 15.9542 82.8627L15.9542 16.9542C15.9542 16.4019 16.4019 15.9542 16.9542 15.9542L82.8627 15.9542C83.415 15.9542 83.8627 16.402 83.8627 16.9542L83.8627 83.8627Z" stroke="white" stroke-width="8"/>
</g>
<defs>
<clipPath id="clip0_804_82">
<rect width="100" height="100" fill="white"/>
</clipPath>
</defs>
</svg>
