<svg width="101" height="98" viewBox="0 0 101 98" fill="none" xmlns="http://www.w3.org/2000/svg">
<g filter="url(#filter0_bd_813_164)">
<path d="M5.2207 61.7686L50.476 38.6412L95.7313 61.7686L95.7313 24.5555L50.476 1.42816L5.2207 24.5555L5.2207 61.7686Z" fill="#616161" fill-opacity="0.2" shape-rendering="crispEdges"/>
<path d="M50.476 38.6412L5.2207 61.7686L5.2207 24.5555L50.476 1.42816M50.476 38.6412L50.476 1.42816M50.476 38.6412L95.7313 61.7686L95.7313 24.5555L50.476 1.42816" stroke="url(#paint0_linear_813_164)" stroke-width="2" shape-rendering="crispEdges"/>
</g>
<g filter="url(#filter1_bd_813_164)">
<path d="M5.2207 26.8843L50.476 50.373L95.7313 26.8843L95.7313 64.6788L50.476 88.1675L5.22071 64.6788L5.2207 26.8843Z" fill="#616161" fill-opacity="0.2" shape-rendering="crispEdges"/>
<path d="M50.476 50.373L5.2207 26.8843L5.22071 64.6788L50.476 88.1675M50.476 50.373L50.476 88.1675M50.476 50.373L95.7313 26.8843L95.7313 64.6788L50.476 88.1675" stroke="url(#paint1_linear_813_164)" stroke-width="2" shape-rendering="crispEdges"/>
</g>
<defs>
<filter id="filter0_bd_813_164" x="-8.7793" y="-12.6949" width="118.51" height="89.0974" filterUnits="userSpaceOnUse" color-interpolation-filters="sRGB">
<feFlood flood-opacity="0" result="BackgroundImageFix"/>
<feGaussianBlur in="BackgroundImageFix" stdDeviation="6.5"/>
<feComposite in2="SourceAlpha" operator="in" result="effect1_backgroundBlur_813_164"/>
<feColorMatrix in="SourceAlpha" type="matrix" values="0 0 0 0 0 0 0 0 0 0 0 0 0 0 0 0 0 0 127 0" result="hardAlpha"/>
<feOffset dy="4"/>
<feGaussianBlur stdDeviation="2"/>
<feComposite in2="hardAlpha" operator="out"/>
<feColorMatrix type="matrix" values="0 0 0 0 0 0 0 0 0 0 0 0 0 0 0 0 0 0 0.25 0"/>
<feBlend mode="normal" in2="effect1_backgroundBlur_813_164" result="effect2_dropShadow_813_164"/>
<feBlend mode="normal" in="SourceGraphic" in2="effect2_dropShadow_813_164" result="shape"/>
</filter>
<filter id="filter1_bd_813_164" x="-8.7793" y="12.2386" width="118.51" height="90.0556" filterUnits="userSpaceOnUse" color-interpolation-filters="sRGB">
<feFlood flood-opacity="0" result="BackgroundImageFix"/>
<feGaussianBlur in="BackgroundImageFix" stdDeviation="6.5"/>
<feComposite in2="SourceAlpha" operator="in" result="effect1_backgroundBlur_813_164"/>
<feColorMatrix in="SourceAlpha" type="matrix" values="0 0 0 0 0 0 0 0 0 0 0 0 0 0 0 0 0 0 127 0" result="hardAlpha"/>
<feOffset dy="4"/>
<feGaussianBlur stdDeviation="2"/>
<feComposite in2="hardAlpha" operator="out"/>
<feColorMatrix type="matrix" values="0 0 0 0 0 0 0 0 0 0 0 0 0 0 0 0 0 0 0.25 0"/>
<feBlend mode="normal" in2="effect1_backgroundBlur_813_164" result="effect2_dropShadow_813_164"/>
<feBlend mode="normal" in="SourceGraphic" in2="effect2_dropShadow_813_164" result="shape"/>
</filter>
<linearGradient id="paint0_linear_813_164" x1="5.2207" y1="61.7686" x2="91.36" y2="-26.057" gradientUnits="userSpaceOnUse">
<stop stop-color="#5E85EA" stop-opacity="0.6"/>
<stop offset="1" stop-color="#337195"/>
</linearGradient>
<linearGradient id="paint1_linear_813_164" x1="5.2207" y1="26.8843" x2="92.7217" y2="114.726" gradientUnits="userSpaceOnUse">
<stop stop-color="#337195" stop-opacity="0.6"/>
<stop offset="1" stop-color="#762484"/>
</linearGradient>
</defs>
</svg>
